<svg xmlns="http://www.w3.org/2000/svg" viewBox="0 0 100 100">
  <defs>
    <radialGradient id="petalGrad" cx="50%" cy="50%" r="50%">
      <stop offset="0%" stop-color="#FF80BF" />
      <stop offset="100%" stop-color="#A78BFA" />
    </radialGradient>
    <linearGradient id="ringGrad" x1="0%" y1="0%" x2="100%" y2="100%">
      <stop offset="0%" stop-color="#79FFE1" />
      <stop offset="100%" stop-color="#FF80BF" />
    </linearGradient>
    <filter id="softGlow" x="-50%" y="-50%" width="200%" height="200%">
      <feGaussianBlur in="SourceGraphic" stdDeviation="1.2" />
    </filter>
  </defs>

  <!-- inner ring -->
  <circle cx="50" cy="50" r="43" fill="none" stroke="url(#ringGrad)" stroke-width="2.5" opacity="0.6" />

  <!-- petals around -->
  <g transform="translate(50 50)">
    <!-- 12 petals -->
    <g fill="url(#petalGrad)" filter="url(#softGlow)">
      <ellipse rx="6" ry="12" transform="rotate(0) translate(0 -46)" />
      <ellipse rx="6" ry="12" transform="rotate(30) translate(0 -46)" />
      <ellipse rx="6" ry="12" transform="rotate(60) translate(0 -46)" />
      <ellipse rx="6" ry="12" transform="rotate(90) translate(0 -46)" />
      <ellipse rx="6" ry="12" transform="rotate(120) translate(0 -46)" />
      <ellipse rx="6" ry="12" transform="rotate(150) translate(0 -46)" />
      <ellipse rx="6" ry="12" transform="rotate(180) translate(0 -46)" />
      <ellipse rx="6" ry="12" transform="rotate(210) translate(0 -46)" />
      <ellipse rx="6" ry="12" transform="rotate(240) translate(0 -46)" />
      <ellipse rx="6" ry="12" transform="rotate(270) translate(0 -46)" />
      <ellipse rx="6" ry="12" transform="rotate(300) translate(0 -46)" />
      <ellipse rx="6" ry="12" transform="rotate(330) translate(0 -46)" />
    </g>
  </g>
</svg>